<?xml version="1.0" encoding="iso-8859-1"?>
<!-- Generator: Adobe Illustrator 18.0.0, SVG Export Plug-In . SVG Version: 6.00 Build 0)  -->
<!DOCTYPE svg PUBLIC "-//W3C//DTD SVG 1.1//EN" "http://www.w3.org/Graphics/SVG/1.1/DTD/svg11.dtd">
<svg version="1.1" id="Capa_1" xmlns="http://www.w3.org/2000/svg" xmlns:xlink="http://www.w3.org/1999/xlink" x="0px" y="0px"
	 viewBox="0 0 443.856 443.856" style="enable-background:new 0 0 443.856 443.856;" xml:space="preserve">
<path d="M332.733,110.806c0-9.48-11.169-15.905-25.867-19.081c6.011-6.154,8.247-12.265,6.15-17.487
	c-2.282-5.688-8.853-8.569-18.574-8.425c8.891-13.171,12.818-26.375,5.836-33.358c-1.631-1.632-4.614-3.576-9.564-3.576
	c-6.068,0-13.948,3.079-22.219,8.394c-0.097-8.611-2.837-14.521-8.017-16.733c-5.638-2.41-12.321,0.198-19.09,7.175
	C238.361,12.113,231.802,0,221.928,0c-9.48,0-15.904,11.168-19.081,25.866c-6.154-6.011-12.266-8.247-17.489-6.149
	c-5.688,2.284-8.57,8.857-8.423,18.577c-8.841-5.951-17.339-9.417-23.792-9.417c-4.95,0-7.934,1.944-9.566,3.575
	c-3.308,3.308-6.022,9.956-0.165,22.847c1.316,2.896,2.985,5.899,4.945,8.939c-8.591,0.106-14.487,2.845-16.698,8.017
	c-2.407,5.637,0.202,12.32,7.178,19.09c-15.6,3.027-27.713,9.586-27.713,19.46c0,9.481,11.169,15.905,25.866,19.082
	c-6.011,6.154-8.247,12.267-6.149,17.488c2.228,5.552,8.523,8.444,17.859,8.444c0.224,0,0.467-0.018,0.695-0.021
	c-2.415,3.577-4.44,7.118-5.982,10.512c-5.856,12.891-3.143,19.539,0.165,22.847c1.631,1.632,4.615,3.576,9.566,3.576
	c6.068,0,13.947-3.079,22.218-8.394c0.097,8.612,2.837,14.521,8.018,16.734c1.379,0.59,2.82,0.88,4.31,0.88
	c4.602,0,9.667-2.78,14.781-8.051c2.483,12.794,7.341,23.242,14.458,26.583v218.37c0,2.762,2.239,5,5,5s5.001-2.238,5.001-5v-56.548
	c28.739-7.922,51.287-36.241,65.365-82.269c10.87-35.534,12.979-68.703,13.063-70.099c0.121-2.011-0.976-3.899-2.783-4.788
	c-1.807-0.89-3.973-0.607-5.492,0.716c-39.189,34.133-59.736,69.66-70.153,93.848v-99.23c6.771-3.179,11.498-12.791,14.08-24.736
	c4.636,4.527,9.248,6.917,13.474,6.917c1.384,0,2.727-0.255,4.016-0.772c5.689-2.283,8.571-8.856,8.425-18.58
	c8.842,5.952,17.339,9.419,23.792,9.419c4.949,0,7.933-1.944,9.564-3.576c6.701-6.705,3.35-19.141-4.792-31.776
	c8.603-0.102,14.5-2.85,16.709-8.026c2.407-5.636-0.201-12.319-7.178-19.089C320.618,127.24,332.733,120.681,332.733,110.806z
	 M303.736,77.961c0.408,1.02-1.317,5.619-10.049,11.85c-3.18-0.261-6.411-0.396-9.64-0.396c-4.016,0-8.036,0.207-11.954,0.608
	c2.997-2.438,5.981-5.112,8.886-8.018c1.708-1.708,3.363-3.471,4.955-5.27C298.032,74.536,303.288,76.847,303.736,77.961z
	 M208.495,110.806c0-7.407,6.026-13.434,13.433-13.434c7.408,0,13.434,6.026,13.434,13.434c0,7.408-6.026,13.435-13.434,13.435
	C214.521,124.24,208.495,118.214,208.495,110.806z M293.207,39.524c2.84,2.841-2.329,18.442-19.298,35.411
	c-13.705,13.705-26.67,19.947-32.915,19.947c-0.69,0-1.932-0.085-2.495-0.648c-0.945-0.945-1.227-4.824,1.868-11.639
	c3.403-7.491,9.595-15.933,17.433-23.771c2.61-2.61,5.193-4.946,7.709-7.023c0.048-0.038,0.095-0.074,0.141-0.113
	c10.633-8.748,20.031-12.811,25.064-12.811C291.403,38.878,292.644,38.962,293.207,39.524z M256.55,29.733
	c1.01,0.432,3.043,4.907,1.271,15.495c-2.391,2.029-4.767,4.201-7.091,6.525c-2.884,2.883-5.567,5.857-8.016,8.857
	c0.399-3.909,0.605-7.92,0.605-11.926c0-2.415-0.076-4.832-0.223-7.229C250.093,31.342,255.449,29.263,256.55,29.733z M221.928,10
	c4.016,0,11.391,14.688,11.391,38.686c0,23.999-7.375,38.687-11.391,38.687c-4.016,0-11.39-14.688-11.39-38.687
	C210.538,24.688,217.912,10,221.928,10z M189.084,28.997c1.023-0.401,5.62,1.317,11.849,10.048c-0.26,3.18-0.395,6.412-0.395,9.641
	c0,4.012,0.206,8.029,0.607,11.945c-2.485-3.053-5.18-6.04-8.017-8.877c-1.733-1.733-3.495-3.39-5.27-4.962
	C185.656,34.699,187.97,29.445,189.084,28.997z M150.648,39.525c0.563-0.563,1.805-0.647,2.495-0.647
	c6.246,0,19.209,6.242,32.914,19.946c16.969,16.97,22.14,32.571,19.301,35.412c-0.563,0.563-1.804,0.646-2.494,0.646
	c-6.245,0-19.209-6.242-32.915-19.948c-7.838-7.838-14.029-16.279-17.432-23.771C149.421,44.35,149.703,40.47,150.648,39.525z
	 M140.855,76.185c0.431-1.01,4.901-3.042,15.474-1.276c2.043,2.402,4.23,4.779,6.548,7.097c2.905,2.905,5.89,5.581,8.888,8.019
	c-3.918-0.401-7.94-0.608-11.955-0.608c-2.416,0-4.834,0.077-7.232,0.223C142.464,82.641,140.384,77.288,140.855,76.185z
	 M121.123,110.806c0-4.016,14.688-11.391,38.686-11.391c23.998,0,38.686,7.375,38.686,11.391c0,4.016-14.688,11.392-38.686,11.392
	C135.811,122.197,121.123,114.821,121.123,110.806z M140.12,143.65c-0.409-1.019,1.316-5.617,10.046-11.849
	c3.181,0.261,6.414,0.396,9.643,0.396c4.015,0,8.036-0.207,11.954-0.608c-2.997,2.438-5.982,5.112-8.886,8.018
	c-1.728,1.728-3.383,3.489-4.961,5.269C145.823,147.08,140.569,144.767,140.12,143.65z M150.648,182.087
	c-0.945-0.945-1.227-4.825,1.868-11.64c3.403-7.491,9.594-15.933,17.432-23.771c13.705-13.705,26.669-19.947,32.915-19.947
	c0.69,0,1.931,0.084,2.494,0.646c2.839,2.84-2.331,18.441-19.301,35.41c-13.706,13.705-26.669,19.947-32.914,19.947
	C152.453,182.733,151.211,182.649,150.648,182.087z M187.306,191.879c-1.01-0.432-3.043-4.908-1.271-15.494
	c2.392-2.031,4.769-4.203,7.093-6.528c2.837-2.837,5.532-5.824,8.018-8.877c-0.401,3.916-0.608,7.934-0.608,11.947
	c0,2.414,0.077,4.829,0.222,7.226C193.763,190.268,188.407,192.34,187.306,191.879z M294.093,242.122
	c-3.919,31.928-18.608,113.698-67.165,129.749v-2.119c4.805-5.347,21.407-24.468,34.712-47.668c1.374-2.396,0.546-5.451-1.85-6.824
	c-2.396-1.375-5.451-0.546-6.824,1.85c-8.629,15.046-18.915,28.541-26.038,37.231v-3.368
	C228.048,345.777,240.47,293.301,294.093,242.122z M221.928,211.612c-4.016,0-11.39-14.688-11.39-38.686
	c0-23.999,7.374-38.686,11.39-38.686c4.016,0,11.391,14.688,11.391,38.686C233.319,196.925,225.944,211.612,221.928,211.612z
	 M254.773,192.614c-1.016,0.41-5.619-1.317-11.85-10.048c0.261-3.18,0.395-6.412,0.395-9.64c0-4.007-0.206-8.018-0.605-11.929
	c2.448,3,5.132,5.975,8.016,8.857c1.733,1.733,3.494,3.39,5.27,4.963C258.201,186.913,255.887,192.167,254.773,192.614z
	 M293.208,182.088c-0.564,0.563-1.804,0.646-2.493,0.646c-6.244,0-19.208-6.243-32.915-19.949
	c-7.838-7.838-14.028-16.279-17.432-23.77c-3.096-6.814-2.813-10.693-1.866-11.64c0.563-0.563,1.803-0.646,2.493-0.646
	c6.245,0,19.209,6.242,32.914,19.946C290.877,163.645,296.047,179.247,293.208,182.088z M303,145.429
	c-0.431,1.01-4.903,3.041-15.483,1.272c-2.064-2.433-4.254-4.813-6.537-7.096c-2.904-2.904-5.889-5.579-8.885-8.017
	c3.918,0.401,7.939,0.608,11.953,0.608c2.415,0,4.832-0.076,7.228-0.223C301.39,138.971,303.472,144.324,303,145.429z
	 M284.048,122.197c-23.998,0-38.686-7.376-38.686-11.392c0-4.016,14.688-11.391,38.686-11.391c3.686,0,7.15,0.175,10.377,0.484
	c0.065,0.009,0.131,0.012,0.197,0.018c17.666,1.728,28.111,7.502,28.111,10.889C322.733,114.821,308.046,122.197,284.048,122.197z"
	/>
<g>
</g>
<g>
</g>
<g>
</g>
<g>
</g>
<g>
</g>
<g>
</g>
<g>
</g>
<g>
</g>
<g>
</g>
<g>
</g>
<g>
</g>
<g>
</g>
<g>
</g>
<g>
</g>
<g>
</g>
</svg>
