<?xml version="1.0" encoding="iso-8859-1"?>
<!-- Generator: Adobe Illustrator 19.0.0, SVG Export Plug-In . SVG Version: 6.00 Build 0)  -->
<svg version="1.1" id="Layer_1" xmlns="http://www.w3.org/2000/svg" xmlns:xlink="http://www.w3.org/1999/xlink" x="0px" y="0px"
	 viewBox="0 0 512 512" style="enable-background:new 0 0 512 512;" xml:space="preserve">
<g>
	<g>
		<g>
			<path d="M389.421,35.942c-11.086,0-21.489-4.307-29.325-12.133c-5.636-6.565-13.544-10.595-22.078-11.344v-4.4
				c0-4.454-3.611-8.065-8.065-8.065s-8.065,3.611-8.065,8.065v4.263h-3.317V8.065c0-4.454-3.611-8.065-8.065-8.065
				c-4.454,0-8.065,3.611-8.065,8.065v5.994c-1.255,0.425-2.485,0.919-3.682,1.497c-4.137-2.624-8.533-4.028-12.775-4.028
				c-4.612,0-8.869,1.717-11.987,4.836c-4.062,4.061-5.67,9.921-4.414,16.075c1.043,5.109,3.926,10.141,8.339,14.556
				c0.582,0.581,1.176,1.137,1.783,1.667l-16.058,201.166h-73.014c-0.247,0-0.492,0.006-0.738,0.015l-0.185,0.005
				c-0.021,0-0.044,0.003-0.066,0.004c-19.257,0.26-36.715,8.077-49.542,20.623c-25.433,4.663-44.282,27.049-44.282,53.192v12.552
				c0,4.454,3.611,8.065,8.065,8.065c4.454,0,8.065-3.611,8.065-8.065v-12.552c0-10.212,4.1-19.604,10.807-26.494
				c-2.874,7.789-4.449,16.202-4.449,24.977c0,1.764,0.078,3.627,0.242,5.691l7.598,173.755c0.125,5.758,4.849,10.405,10.638,10.405
				h23.245c5.789,0,10.512-4.647,10.638-10.406l2.064-47.203l2.065,47.203c0.125,5.759,4.849,10.406,10.638,10.406h23.245
				c5.788,0,10.512-4.647,10.638-10.406l4.684-107.121h37.191l4.683,107.122c0.125,5.759,4.85,10.406,10.639,10.406h23.245
				c5.788,0,10.513-4.646,10.638-10.406l2.065-47.203l2.064,47.202c0.124,5.759,4.849,10.407,10.638,10.407h23.246
				c5.788,0,10.511-4.646,10.637-10.406l7.136-163.2c1.205-5.239,1.853-10.676,1.853-16.244v-64.258c0-0.17-0.005-0.34-0.016-0.511
				L357.377,89.46h32.044c14.755,0,26.758-12.004,26.758-26.76C416.178,47.946,404.174,35.942,389.421,35.942z M193.532,265.956
				h27.322c2,2.809,3.088,6.147,3.088,9.66c0,9.235-7.513,16.748-16.748,16.748c-9.236,0-16.75-7.513-16.75-16.748
				C190.443,272.102,191.531,268.764,193.532,265.956z M203.425,495.87h-12.731l-4.441-101.541c1.456,0.087,2.914,0.143,4.381,0.143
				h17.226L203.425,495.87z M343.157,495.87h-12.732l-4.719-107.906c8.737-3.973,16.485-9.611,22.889-16.48L343.157,495.87z
				 M351.911,310.742c-3.064-2.401-5.043-6.126-5.043-10.312c0-4.185,1.98-7.91,5.043-10.311V310.742z M373.512,73.33h-24.728
				c-2.227,0-4.356,0.922-5.881,2.545c-1.525,1.625-2.31,3.807-2.168,6.029l2.11,33.274c-15.762,5.12-26.899,19.903-26.899,37.056
				c0,19,13.663,34.86,31.677,38.293l2.674,42.172c-4.577-5.411-11.409-8.855-19.034-8.855c-13.747,0-24.931,11.183-24.931,24.93
				c0,13.747,11.184,24.931,24.931,24.931c8.58,0,16.161-4.357,20.648-10.975v9.601c-12.21,3.51-21.173,14.773-21.173,28.096
				c0,13.193,8.785,24.368,20.812,27.995c-2.717,24.352-21.047,44.452-45.595,48.97c-3.697,0.68-6.434,3.824-6.597,7.579
				l-4.85,110.896h-12.732l-4.801-109.815c-0.188-4.313-3.74-7.712-8.057-7.712h-78.284c-6.852,0-13.564-1.231-19.951-3.657
				c-2.419-0.918-5.135-0.622-7.298,0.802c-2.162,1.423-3.511,3.798-3.624,6.385l-4.985,113.999h-12.731l-7.385-168.878
				c-0.004-0.098-0.01-0.196-0.018-0.292c-0.135-1.69-0.201-3.179-0.201-4.55c0-25.624,17.246-47.28,40.734-54.014
				c-0.562,2.424-0.86,4.927-0.86,7.48c0,6.65,1.99,12.839,5.398,18.018c-3.334-2.013-7.224-3.195-11.394-3.195
				c-12.201,0-22.126,9.925-22.126,22.127c0,12.202,9.925,22.127,22.126,22.127c12.2,0,22.126-9.925,22.126-22.127
				c0-3.757-0.947-7.294-2.606-10.396c5.435,3.971,12.124,6.324,19.356,6.324c18.129,0,32.878-14.749,32.878-32.878
				c0-3.325-0.49-6.571-1.437-9.66h32.459c4.206,0,7.705-3.231,8.039-7.423l1.57-19.66c20.982-0.599,37.869-17.841,37.869-38.963
				c0-19.008-13.675-34.872-31.701-38.297l2.419-30.307c3.919,3.514,9.076,5.672,14.741,5.672c12.201,0,22.127-9.925,22.127-22.127
				c0-12.2-9.925-22.125-22.127-22.125c-4.4,0-8.494,1.305-11.943,3.529l4.049-50.721c0.252-3.149-1.351-6.065-3.958-7.594
				c-0.97-0.641-1.929-1.432-2.852-2.354c-2.107-2.107-3.542-4.43-3.939-6.373c-0.165-0.808-0.088-1.339,0.017-1.443
				c0.105-0.105,0.502-0.111,0.581-0.111c1.32,0,3.807,0.886,6.531,3.366c2.786,2.765,7.251,3.149,10.496,0.733
				c2.898-2.158,6.349-3.299,9.981-3.299h20.975c0.271,0.023,0.547,0.03,0.815,0.024c0.167-0.003,0.332-0.012,0.514-0.023
				c4.914,0.049,9.537,2.24,12.704,6.026c0.203,0.244,0.42,0.474,0.648,0.689c8.348,8.357,18.804,13.821,30.177,15.92
				C375.747,58.099,373.949,65.599,373.512,73.33z M346.542,173.475c-8.458-3.356-14.466-11.601-14.466-21.241
				c0-8.563,4.74-16.108,11.85-20.016L346.542,173.475z M340.063,248.776c0,4.853-3.948,8.802-8.8,8.802s-8.802-3.948-8.802-8.802
				c0-4.853,3.949-8.8,8.802-8.8S340.063,243.923,340.063,248.776z M174.313,312.567c0,3.307-2.689,5.997-5.996,5.997
				c-3.307,0-5.996-2.689-5.996-5.997c0-3.308,2.689-5.997,5.996-5.997S174.313,309.26,174.313,312.567z M281.999,222.639
				l3.573-44.768c9.704,2.643,16.87,11.507,16.87,22.037C302.442,211.698,293.471,221.426,281.999,222.639z M298.035,114.851
				c0-3.306,2.689-5.995,5.995-5.995c3.307,0,5.997,2.689,5.997,5.995c0,3.307-2.689,5.997-5.997,5.997
				C300.724,120.847,298.035,118.158,298.035,114.851z M389.667,73.317c0.518-6.834,2.463-13.411,5.723-19.403
				c2.81,1.915,4.658,5.138,4.658,8.786C400.048,68.478,395.412,73.185,389.667,73.317z"/>
			<path d="M249.151,306.543c0,21.5,17.491,38.991,38.991,38.991c21.5,0,38.992-17.491,38.992-38.991
				c0-21.5-17.492-38.991-38.992-38.991C266.642,267.551,249.151,285.042,249.151,306.543z M311.005,306.543
				c0,12.606-10.256,22.861-22.862,22.861c-12.606,0-22.861-10.255-22.861-22.861s10.255-22.861,22.861-22.861
				C300.748,283.681,311.005,293.936,311.005,306.543z"/>
			<path d="M329.952,38.38c-3.396,0-6.149,2.754-6.149,6.151s2.754,6.151,6.149,6.151c3.399,0,6.153-2.754,6.153-6.151
				C336.105,41.133,333.351,38.38,329.952,38.38z"/>
			<path d="M229.115,318.564c-12.201,0-22.127,9.925-22.127,22.126c0,12.2,9.925,22.125,22.127,22.125
				c12.2,0,22.124-9.925,22.124-22.125C251.239,328.488,241.315,318.564,229.115,318.564z M229.115,346.683
				c-3.307,0-5.997-2.689-5.997-5.995c0-3.306,2.69-5.996,5.997-5.996c3.306,0,5.994,2.689,5.994,5.996
				C235.109,343.994,232.421,346.683,229.115,346.683z"/>
		</g>
	</g>
</g>
<g>
</g>
<g>
</g>
<g>
</g>
<g>
</g>
<g>
</g>
<g>
</g>
<g>
</g>
<g>
</g>
<g>
</g>
<g>
</g>
<g>
</g>
<g>
</g>
<g>
</g>
<g>
</g>
<g>
</g>
</svg>
