<?xml version="1.0" encoding="iso-8859-1"?>
<!-- Generator: Adobe Illustrator 19.0.0, SVG Export Plug-In . SVG Version: 6.00 Build 0)  -->
<svg version="1.1" id="Layer_1" xmlns="http://www.w3.org/2000/svg" xmlns:xlink="http://www.w3.org/1999/xlink" x="0px" y="0px"
	 viewBox="0 0 512.001 512.001" style="enable-background:new 0 0 512.001 512.001;" xml:space="preserve">
<g>
	<g>
		<path d="M390.483,187.497l-20.226-45.339c-4.775-10.705-13.968-18.726-25.222-22.009c-16.515-4.818-34.174,1.462-43.941,15.624
			l-6.089,8.829c-5.072,7.353-13.432,11.744-22.365,11.744h-27.372c-8.932,0-17.293-4.39-22.365-11.744l-6.089-8.829
			c-9.767-14.161-27.423-20.44-43.942-15.624c-11.252,3.283-20.445,11.304-25.221,22.008l-20.229,45.34
			c-11.487,25.75-3.928,55.776,18.383,73.016c2.808,2.169,6.653,2.41,9.708,0.603l15.967-9.436l-1.216,6.349
			c-5.562,29.05,4.196,59.103,25.524,79.372c2.035,26.554,24.276,47.542,51.344,47.542h23.638c27.066,0,49.307-20.989,51.344-47.542
			c21.328-20.271,31.087-50.323,25.524-79.374l-1.216-6.348l15.967,9.436c3.055,1.805,6.901,1.566,9.708-0.603
			C394.412,243.272,401.971,213.248,390.483,187.497z M270.774,367.61h-23.638c-17.352,0-31.714-13.001-33.883-29.771l45.703-30.88
			l45.703,30.88C302.488,354.609,288.126,367.61,270.774,367.61z M258.954,284.491L240.2,266.506
			c-0.185-0.177-0.617-0.592-0.298-1.386c0.319-0.794,0.918-0.794,1.174-0.794h35.759c0.257,0,0.855,0,1.175,0.794
			c0.318,0.794-0.114,1.208-0.299,1.384L258.954,284.491z M365.809,242.999l-27.098-16.012c-2.933-1.733-6.611-1.587-9.396,0.373
			c-2.787,1.961-4.166,5.372-3.526,8.718l4.828,25.21c4.23,22.091-2.603,44.913-17.932,61.053l-39.984-27.016l17.009-16.309
			c5.511-5.285,7.232-13.278,4.383-20.362c-2.847-7.085-9.622-11.663-17.258-11.663h-35.759c-7.634,0-14.41,4.577-17.257,11.661
			c-2.849,7.084-1.129,15.078,4.382,20.363l17.009,16.309l-39.984,27.016c-15.329-16.141-22.162-38.962-17.932-61.053l4.828-25.21
			c0.641-3.347-0.738-6.758-3.526-8.718c-1.491-1.049-3.237-1.579-4.988-1.579c-1.52,0-3.045,0.4-4.408,1.205l-27.098,16.012
			c-12.57-12.636-16.275-31.788-8.845-48.441l20.229-45.34c2.696-6.045,7.888-10.575,14.243-12.43
			c9.329-2.72,19.301,0.826,24.82,8.824l6.089,8.829c8.307,12.045,22.002,19.237,36.634,19.237h27.372
			c14.631,0,28.327-7.192,36.634-19.237l6.089-8.828c5.516-7.998,15.485-11.547,24.818-8.824c6.356,1.854,11.548,6.385,14.244,12.43
			l20.229,45.339C382.084,211.211,378.379,230.364,365.809,242.999z"/>
	</g>
</g>
<g>
	<g>
		<path d="M492.882,286.797c-10.824-56.935-29.842-109.913-50.269-155.117l22.809-42.005c7.277-13.401,6.14-29.322-2.965-41.55
			c-9.125-12.251-24.086-17.91-39.039-14.77c-12.882,2.704-22.536,6.462-28.017,8.928c-11.226-16.276-27.26-28.928-45.797-35.96
			c-20.643-7.832-43.584-8.408-64.595-1.619l-29.009,9.372l-29.009-9.372c-21.009-6.788-43.95-6.213-64.595,1.619
			c-18.535,7.032-34.571,19.685-45.797,35.96c-5.482-2.467-15.136-6.224-28.018-8.928c-14.953-3.139-29.914,2.52-39.037,14.771
			c-9.108,12.228-10.242,28.149-2.965,41.55l22.809,42.005c-20.427,45.203-39.445,98.183-50.269,155.117
			c-7.281,38.298,12.109,77.134,47.151,94.442c100.891,49.833,167.206,95.721,181.943,125.897c1.454,2.976,4.476,4.864,7.788,4.864
			c3.312,0,6.334-1.887,7.788-4.864c14.737-30.175,81.053-76.063,181.942-125.897C480.774,363.931,500.162,325.094,492.882,286.797z
			 M426.98,50.319c8.391-1.761,16.457,1.289,21.575,8.16c5.1,6.848,5.71,15.418,1.635,22.924l-16.701,30.758
			c-9.825-20.326-19.738-38.77-29.021-54.916C409.287,55.212,417.005,52.413,426.98,50.319z M61.811,81.403
			c-4.076-7.506-3.465-16.076,1.635-22.923c5.117-6.871,13.183-9.922,21.573-8.16c9.979,2.095,17.694,4.894,22.514,6.928
			c-9.284,16.145-19.196,34.588-29.021,54.915L61.811,81.403z M438.054,365.698c-67.854,33.516-151.2,80.397-182.054,121.378
			C225.145,446.094,141.8,399.212,73.946,365.698c-28.087-13.873-43.63-44.987-37.797-75.663
			c18.106-95.254,59.877-179.429,91.728-233.269c9.252-15.638,23.694-27.796,40.667-34.236c9.125-3.462,18.796-5.2,28.474-5.2
			c8.325,0,16.655,1.286,24.645,3.868l31.672,10.233c1.731,0.559,3.598,0.559,5.329,0l31.672-10.233
			c17.276-5.582,36.141-5.109,53.119,1.332c16.974,6.439,31.416,18.598,40.667,34.236c31.853,53.84,73.622,138.015,91.73,233.268
			C481.684,320.711,466.14,351.824,438.054,365.698z"/>
	</g>
</g>
<g>
	<g>
		<path d="M209.225,198.43l-14.749-6.413c-4.391-1.909-9.497,0.104-11.404,4.493c-1.908,4.39,0.103,9.496,4.493,11.405l14.749,6.413
			c1.126,0.489,2.297,0.721,3.451,0.721c3.347,0,6.534-1.95,7.953-5.213C215.626,205.445,213.615,200.339,209.225,198.43z"/>
	</g>
</g>
<g>
	<g>
		<path d="M331.882,196.511c-1.908-4.389-7.016-6.402-11.404-4.492l-14.748,6.413c-4.39,1.909-6.401,7.015-4.493,11.404
			c1.42,3.265,4.606,5.213,7.953,5.213c1.153,0,2.326-0.232,3.451-0.721l14.748-6.413C331.779,206.005,333.79,200.9,331.882,196.511
			z"/>
	</g>
</g>
<g>
</g>
<g>
</g>
<g>
</g>
<g>
</g>
<g>
</g>
<g>
</g>
<g>
</g>
<g>
</g>
<g>
</g>
<g>
</g>
<g>
</g>
<g>
</g>
<g>
</g>
<g>
</g>
<g>
</g>
</svg>
