<?xml version="1.0" encoding="iso-8859-1"?>
<!-- Generator: Adobe Illustrator 19.0.0, SVG Export Plug-In . SVG Version: 6.00 Build 0)  -->
<svg version="1.1" id="Layer_1" xmlns="http://www.w3.org/2000/svg" xmlns:xlink="http://www.w3.org/1999/xlink" x="0px" y="0px"
	 viewBox="0 0 512 512" style="enable-background:new 0 0 512 512;" xml:space="preserve">
<g>
	<g>
		<g>
			<circle cx="357.751" cy="244.631" r="23.396"/>
			<path d="M481.508,193.206c46.247-55.103,39.086-137.17-16.038-183.428c-13.146-11.058-32.676-9.287-43.628,3.796l-59.888,71.37
				c-65.462-49.796-141.901-53.253-211.91,0L90.171,13.59C79.15,0.425,59.597-1.215,46.546,9.764
				C-8.569,56.017-15.779,138.077,30.492,193.206l21.758,25.928c-14.994,37.505-23.174,76.591-23.174,111.517
				c0,125.956,101.225,178.845,226.925,178.845c126.065,0,226.924-53.227,226.924-178.845c0-34.924-8.181-74.014-23.173-111.52
				L481.508,193.206z M352.106,122.593c-43.135,36.024-75.591,80.906-94.559,130.368h-3.093
				c-18.969-49.461-51.425-94.344-94.561-130.368C223.383,66.556,292.201,69.736,352.106,122.593z M277.339,395.875v26.865h-42.677
				v-26.865c8.145-4.506,15.377-10.476,21.337-17.573C261.96,385.399,269.192,391.368,277.339,395.875z M65.968,39.774
				l57.533,68.563c-21.87,22.066-40.335,48.163-54.81,75.365l-11.105-13.235C24.657,131.235,29.09,73.702,65.968,39.774z
				 M256,474.127c-166.667,0-191.554-89.89-191.554-143.474c0-63.263,29.399-133.59,70.718-182.592
				c37.995,31.187,66.856,69.862,84.231,112.464c-10.177,9.652-12.672,26.573-2.005,38.886l20.924,24.162
				c0,7.106,0.424,13.272-3.121,21.714c-4.444,10.548-13.184,18.731-23.979,22.451c-0.007,0.002-0.013,0.006-0.02,0.008
				c-0.006,0.002-0.012,0.002-0.018,0.005c-25.89,8.983-53.33-10.368-53.33-38.051c0-9.767-7.918-17.685-17.685-17.685
				s-17.685,7.918-17.685,17.685c0,41.688,33.916,75.604,75.604,75.604c0.404,0,0.806-0.019,1.21-0.025v35.147
				c0,9.767,7.918,17.685,17.685,17.685h78.048c9.767,0,17.685-7.918,17.685-17.685V405.28c0.403,0.006,0.805,0.025,1.21,0.025
				c41.688,0,75.604-33.916,75.604-75.604c0-9.767-7.918-17.685-17.685-17.685s-17.685,7.918-17.685,17.685
				c0,27.634-27.389,47.052-53.33,38.051c-0.006-0.002-0.012-0.004-0.018-0.005c-0.007-0.002-0.013-0.005-0.02-0.007
				c-10.795-3.72-19.535-11.904-23.972-22.433c-3.547-8.444-3.128-14.605-3.128-21.731l20.924-24.161
				c10.657-12.304,8.174-29.235-2.004-38.89c17.375-42.601,46.236-81.274,84.23-112.461c41.143,48.794,70.718,119.03,70.718,182.592
				C447.553,455.486,327.538,474.127,256,474.127z M454.413,170.47l-11.104,13.233c-15.844-29.791-34.876-55.254-54.81-75.365
				l57.533-68.565c36.907,33.944,41.289,91.488,8.382,130.696C454.413,170.47,454.413,170.47,454.413,170.47z"/>
			<circle cx="154.963" cy="244.631" r="23.396"/>
		</g>
	</g>
</g>
<g>
</g>
<g>
</g>
<g>
</g>
<g>
</g>
<g>
</g>
<g>
</g>
<g>
</g>
<g>
</g>
<g>
</g>
<g>
</g>
<g>
</g>
<g>
</g>
<g>
</g>
<g>
</g>
<g>
</g>
</svg>
