<?xml version="1.0" encoding="iso-8859-1"?>
<!-- Generator: Adobe Illustrator 19.0.0, SVG Export Plug-In . SVG Version: 6.00 Build 0)  -->
<svg version="1.1" id="Layer_1" xmlns="http://www.w3.org/2000/svg" xmlns:xlink="http://www.w3.org/1999/xlink" x="0px" y="0px"
	 viewBox="0 0 512 512" style="enable-background:new 0 0 512 512;" xml:space="preserve">
<g>
	<g>
		<circle cx="393.541" cy="201.99" r="11.036"/>
	</g>
</g>
<g>
	<g>
		<path d="M480.79,80.286c-7.571,0-14.854,2.726-20.538,7.703c-0.044,0.033-0.099,0.088-0.143,0.132
			c-0.088,0.066-0.166,0.121-0.243,0.199c-24.643,21.785-62.187,20.626-85.528-2.604c-0.022-0.033-0.044-0.055-0.077-0.088
			c-0.519-0.53-1.402-1.677-1.402-3.421V58.7c0-14.843-12.084-26.917-26.917-26.917c-14.843,0-26.928,12.073-26.928,26.917v7.626
			c0,2.682-2.163,4.845-4.845,4.845c-2.671,0-4.845-2.163-4.845-4.845V42.819c0-14.843-12.073-26.917-26.917-26.917
			c-14.843,0-26.917,12.073-26.917,26.917v7.626c0,2.682-2.174,4.845-4.845,4.845s-4.845-2.163-4.845-4.845V26.939
			c0-14.843-12.073-26.917-26.917-26.917c-14.843,0-26.917,12.073-26.917,26.917v23.506c0,46.638,27.777,86.886,67.65,105.106
			c-7.262,3.41-14.159,7.482-20.604,12.195c-16.598,12.151-30.172,28.384-39.343,47.686h-88.199
			c-15.781,0-31.044,4.249-44.464,12.327c-8.707-1.225-19.534,1.545-29.83,7.858c-7.416,4.558-13.596,10.44-17.426,16.576
			c-5.176,8.332-5.805,16.918-1.733,23.551c1.247,2.031,3.984,5.474,9.094,7.538c-1.335,6.059-1.997,12.25-1.997,18.529v40.314
			c0,7.758-6.324,14.071-14.082,14.071C4.933,356.195,0,361.128,0,367.231v133.711c0,6.092,4.933,11.036,11.036,11.036h23.043
			c5.374,0,9.965-3.863,10.87-9.16l14.49-84.094c6.511-2.593,12.57-6.191,17.977-10.583v92.801c0,6.092,4.944,11.036,11.036,11.036
			h23.032c5.374,0,9.965-3.863,10.881-9.16l14.479-84.094c14.678-5.849,27.082-16.753,34.807-30.536h56.14v112.754
			c0,6.092,4.944,11.036,11.036,11.036h27.788c5.408,0,10.01-3.918,10.892-9.248l19.004-116.23c2.02-0.188,4.017-0.441,6.004-0.75
			v115.193c0,6.092,4.944,11.036,11.036,11.036h27.766c5.408,0,10.021-3.918,10.892-9.248l27.866-170.284l8.796,9.888
			c2.538,2.847,6.379,4.194,10.131,3.531c3.763-0.651,6.919-3.2,8.354-6.732l23.385-57.939c0,0,7.957,3.09,17.657,3.09
			c27.678,0,50.18-22.513,50.18-50.169c0-18.253-9.888-35.039-25.835-43.89l-10.76-6.577l-10.286-6.39l-19.136-11.698
			c24.93-2.075,48.437-12.471,68.533-30.371c0.232-0.199,0.452-0.397,0.662-0.585C508.27,128.712,512,120.28,512,111.496
			C512,94.28,498.007,80.286,480.79,80.286z M124.11,399.776c-4.094,1.148-7.173,4.547-7.902,8.751l-14.016,81.379h-2.704V388.188
			h44.64C138.567,393.607,131.681,397.657,124.11,399.776z M331.949,489.906h-7.361v-110.16c10.23-4.061,19.732-9.745,28.13-16.764
			L331.949,489.906z M461.897,209.44c9.016,4.944,14.612,14.402,14.612,24.676c0,15.494-12.603,28.097-28.108,28.097
			c-2.759,0-8.818-1.391-9.182-1.468l-10.948-3.929v0.011c-5.562-2.031-11.775,0.695-14.005,6.224l-20.725,51.328l-10.528-11.842
			c-2.671-3.013-6.776-4.326-10.705-3.432c-3.918,0.905-7.041,3.863-8.156,7.725c-9.767,34.178-41.451,58.038-77.086,58.038
			c-5.408,0-10.021,3.918-10.892,9.259l-18.938,115.778h-7.372V377.152c0-6.103-4.933-11.036-11.036-11.036H87.371
			c-4.436,0-8.442,2.649-10.175,6.743C71.7,385.904,60.3,395.968,46.704,399.776c-4.105,1.148-7.173,4.547-7.902,8.751
			l-14.016,81.379h-2.715V376.545c14.545-4.679,25.118-18.342,25.118-34.421V301.81c0-8.343,1.578-16.488,4.712-24.191
			c1.523-3.741,0.883-8.012-1.666-11.135c-2.56-3.123-6.611-4.602-10.583-3.863c-0.121,0.022-0.243,0.044-0.353,0.055
			c1.711-2.307,4.701-5.341,9.425-8.244c8.122-4.977,14.292-5.22,15.561-4.768c3.531,1.633,7.67,1.291,10.881-0.916
			c10.727-7.35,23.275-11.246,36.308-11.246h95.405c4.679,0,8.674-2.925,10.263-7.052c14.976-36.783,48.834-61.492,88.409-64.527
			c0.177-0.011,75.298,0.033,75.298,0.033c2.803,0.011,5.595,0.331,8.299,0.927c2.627,0.596,5.231,1.49,7.736,2.671
			c0.011,0,0.033,0.011,0.055,0.022C399.434,170.759,461.742,209.362,461.897,209.44z M486.915,118.272
			c-18.596,16.752-40.623,25.614-63.71,25.614H307.483c-51.516,0-93.419-41.903-93.441-93.408v-23.54
			c0-2.671,2.174-4.845,4.845-4.845s4.845,2.174,4.845,4.845v23.506c0,14.843,12.073,26.917,26.917,26.917
			c14.479,0,26.321-11.488,26.894-25.835c0.011-0.177,0.022-0.364,0.022-0.541v-8.167c0-2.671,2.174-4.845,4.845-4.845
			s4.845,2.174,4.845,4.845v23.506c0,14.843,12.084,26.917,26.917,26.917c14.49,0,26.332-11.488,26.894-25.835
			c0.011-0.177,0.022-0.364,0.022-0.541V58.7c0-2.671,2.174-4.845,4.856-4.845c2.671,0,4.845,2.174,4.845,4.845v23.506
			c0,7.041,2.682,13.662,7.56,18.706c0.099,0.11,0.188,0.21,0.287,0.309c16.455,16.466,38.162,24.765,59.903,24.765
			c19.854,0,39.74-6.92,55.687-20.902c0.066-0.055,0.132-0.11,0.188-0.154c0,0,0-0.011,0.011-0.011
			c0.088-0.077,0.188-0.155,0.276-0.243c1.677-1.501,3.841-2.318,6.092-2.318c5.043,0,9.138,4.094,9.138,9.138
			C489.928,114.089,488.88,116.484,486.915,118.272z"/>
	</g>
</g>
<g>
	<g>
		<path d="M327.931,284.997c-5.862-1.677-11.97,1.717-13.645,7.575c-3.44,12.027-14.634,20.427-27.219,20.427
			c-6.095,0-11.036,4.942-11.036,11.036c0,6.095,4.941,11.036,11.036,11.036c22.385,0,42.305-14.98,48.44-36.43
			C337.182,292.782,333.79,286.673,327.931,284.997z"/>
	</g>
</g>
<g>
</g>
<g>
</g>
<g>
</g>
<g>
</g>
<g>
</g>
<g>
</g>
<g>
</g>
<g>
</g>
<g>
</g>
<g>
</g>
<g>
</g>
<g>
</g>
<g>
</g>
<g>
</g>
<g>
</g>
</svg>
