<?xml version="1.0" encoding="iso-8859-1"?>
<!-- Generator: Adobe Illustrator 19.0.0, SVG Export Plug-In . SVG Version: 6.00 Build 0)  -->
<svg version="1.1" id="Layer_1" xmlns="http://www.w3.org/2000/svg" xmlns:xlink="http://www.w3.org/1999/xlink" x="0px" y="0px"
	 viewBox="0 0 512 512" style="enable-background:new 0 0 512 512;" xml:space="preserve">
<g>
	<g>
		<path d="M28.899,419.625h-13.18c-4.199,0-7.604,3.404-7.604,7.604c0,4.2,3.404,7.604,7.604,7.604h13.18
			c4.199,0,7.604-3.404,7.604-7.604C36.503,423.029,33.098,419.625,28.899,419.625z"/>
	</g>
</g>
<g>
	<g>
		<path d="M495.615,419.625h-29.749c-4.2,0-7.604,3.404-7.604,7.604c0,4.2,3.403,7.604,7.604,7.604h29.749
			c4.2,0,7.604-3.404,7.604-7.604C503.219,423.029,499.815,419.625,495.615,419.625z"/>
	</g>
</g>
<g>
	<g>
		<path d="M509.931,306.387c-4.223-8.957-13.958-13.901-23.679-12.012c-19.742,3.827-40.243,11.165-61.203,21.886
			c29.326-47.098,55.604-81.421,56.079-82.037c3.334-4.412,5.212-6.784,5.229-6.806c6.16-7.751,6.278-18.668,0.285-26.55
			c-5.994-7.884-16.546-10.692-25.659-6.82c-22.151,9.394-44.233,23.893-65.929,43.208c21.605-54.219,40.623-90.199,40.814-90.561
			c4.654-8.74,2.787-19.497-4.538-26.16c-7.323-6.663-18.21-7.505-26.474-2.049c-25.234,16.666-48.887,41.186-70.451,72.996
			c10.247-51.647,20.677-86.116,20.789-86.482c2.897-9.467-0.796-20.003-9.451-24.811c-10.831-6.015-22.17-0.801-26.377,3.046
			c-35.738,32.675-62.113,102.385-62.693,103.958c-0.533-1.506-29.82-74.576-60.387-104.014c-7.136-6.873-17.65-8.385-26.043-3.191
			c-8.247,5.102-12.083,15.242-9.329,24.66c0.114,0.388,11.008,37.994,21.163,93.876c-22.758-35.114-47.942-61.93-74.932-79.755
			c-8.262-5.46-19.148-4.615-26.473,2.049c-7.324,6.662-9.19,17.42-4.513,26.209c0.39,0.72,20.136,37.483,41.821,91.405
			c-22.027-19.774-44.459-34.558-66.96-44.101c-9.117-3.867-19.668-1.063-25.661,6.821c-5.993,7.881-5.874,18.798,0.286,26.549
			c0.263,0.331,36.711,47.169,60.716,88.277c-20.753-10.556-41.057-17.809-60.611-21.6c-9.721-1.895-19.459,3.053-23.68,12.01
			c-4.222,8.955-1.835,19.609,5.798,25.904c0.327,0.271,33.234,27.568,75.31,71.16c5.123,5.307,10.235,10.719,15.301,16.176H54.92
			c-4.199,0-7.604,3.403-7.604,7.604s3.404,7.604,7.604,7.604h60.829h0.001c0,0,8.184,0.279,7.774-7.322
			c-0.338-6.263-20.121-25.003-29.405-34.624c-42.731-44.277-76.233-72.047-76.572-72.326c-2.267-1.871-2.976-5.032-1.722-7.691
			c1.253-2.657,4.143-4.129,7.029-3.565c25.196,4.885,51.918,16.031,79.433,33.114c17.256,29.558,32.729,59.138,46.167,88.276
			c1.243,2.693,3.938,4.418,6.905,4.418h23.082c2.183,0,4.26-0.938,5.704-2.575c1.444-1.637,2.114-3.817,1.84-5.982
			C168.269,286.38,90.317,141.232,89.558,139.832c-1.381-2.594-0.826-5.787,1.348-7.765c2.175-1.978,5.431-2.266,7.857-0.609
			c47.742,32.61,76.806,78.571,90.097,108.554c7.565,52.066,13.677,118.721,9.849,185.061c-0.066,0.678-0.625,9.438,7.466,9.673
			l125.31,0.084c3.691,0,6.85-2.65,7.489-6.286c10.3-58.539,27.605-114.371,43.199-157.418
			c27.835-29.805,56.342-51.033,84.748-63.079c2.703-1.148,5.837-0.315,7.615,2.024c1.779,2.341,1.745,5.581-0.082,7.88
			c-0.019,0.022-84.287,107.149-123.112,206.446c-0.92,2.351-0.655,4.999,0.759,7.09c1.414,2.092,3.773,3.344,6.298,3.344h80.431
			c4.2,0,7.604-3.403,7.604-7.604s-3.404-7.604-7.604-7.604h-25.309c5.063-5.452,10.174-10.864,15.301-16.176
			c41.953-43.463,74.985-70.891,75.304-71.155C511.765,325.996,514.153,315.341,509.931,306.387z M130.549,272.172
			c0.171,0.185,0.35,0.359,0.534,0.522c16.065,44.315,31.286,95.915,38.658,147.213h-9.529
			c-17.756-37.985-38.875-76.649-62.816-114.995c-32.828-52.581-59.582-86.342-59.846-86.675c-1.829-2.301-1.863-5.542-0.085-7.881
			c1.779-2.341,4.91-3.172,7.617-2.025C73.731,220.483,102.487,241.961,130.549,272.172z M214.23,419.578
			c3.943-81.387-6.385-162.35-15.898-216.543c-10.7-60.956-22.702-102.245-22.821-102.653c-0.841-2.876,0.283-5.944,2.733-7.46
			c2.307-1.423,5.262-1.052,7.189,0.911c22.084,22.495,40.707,54.158,55.353,94.106c2.716,7.408,5.328,15.218,7.78,23.219
			c-26.53,84.204-30.659,190.003-30.955,208.434L214.23,419.578z M232.819,419.624c0.293-18.076,1.973-66.181,11.26-121.978
			c6.857-41.197,16.463-78.11,28.552-109.712c15.253-39.875,34.561-71.448,57.388-93.844c1.208-1.185,4.219-2.85,7.829-0.904
			c2.587,1.394,3.665,4.554,2.804,7.372c-0.127,0.415-12.751,42.1-23.963,102.56c-10.043,54.155-21.052,135.086-17.379,216.507
			H232.819z M325.129,419.625h-10.591c-3.129-67.788,4.153-135.419,12.477-187.051c0.214-0.284,41.773-78.388,86.219-101.396
			c2.613-1.352,5.685-1.371,7.859,0.608c2.175,1.979,2.727,5.171,1.345,7.767C422.239,139.934,357.385,245.177,325.129,419.625z
			 M494.442,320.568c-1.37,1.133-34.023,28.247-76.564,72.319c-8.426,8.729-16.827,17.713-25.005,26.738h-23.087
			c11.203-26.132,25.104-52.479,39.25-76.79v-0.001c27.754-17.323,54.706-28.604,80.111-33.529c2.878-0.557,5.774,0.906,7.028,3.567
			C497.428,315.529,496.719,318.691,494.442,320.568z"/>
	</g>
</g>
<g>
</g>
<g>
</g>
<g>
</g>
<g>
</g>
<g>
</g>
<g>
</g>
<g>
</g>
<g>
</g>
<g>
</g>
<g>
</g>
<g>
</g>
<g>
</g>
<g>
</g>
<g>
</g>
<g>
</g>
</svg>
